<svg xmlns="http://www.w3.org/2000/svg" width="52" height="48" viewBox="0 0 52 48"><g transform="translate(-1154.153 -1159)"><path d="M51.486,26.57H.514A.51.51,0,0,0,0,27.076V62.064a.51.51,0,0,0,.514.506H51.486A.51.51,0,0,0,52,62.064V27.076a.51.51,0,0,0-.514-.506ZM2.849,59.762V29.378h46.3V59.762Z" transform="translate(1154.153 1144.43)"/><path d="M5.839,20.71H51.011a1.5,1.5,0,0,0,0-3H5.839a1.5,1.5,0,0,0,0,3Z" transform="translate(1150.728 1149.29)"/><path d="M12.5,11.86H52.648a1.5,1.5,0,0,0,0-3H12.5a1.5,1.5,0,0,0,0,3Z" transform="translate(1147.078 1154.14)"/><path d="M19.123,3H53.307a1.456,1.456,0,0,0,1.408-1.5A1.456,1.456,0,0,0,53.307,0H19.123a1.456,1.456,0,0,0-1.408,1.5A1.456,1.456,0,0,0,19.123,3Z" transform="translate(1143.438 1159)"/></g></svg>