<svg xmlns="http://www.w3.org/2000/svg" width="11" height="11" viewBox="0 0 11 11"><defs><style>.a,.d{fill:none;}.a{stroke:#55dfb4;}.b{fill:#55dfb4;}.c{stroke:none;}</style></defs><g transform="translate(-446.5 -4428)"><g class="a" transform="translate(446.5 4428)"><rect class="c" width="11" height="11" rx="2"/><rect class="d" x="0.5" y="0.5" width="10" height="10" rx="1.5"/></g><path class="b" d="M4.926,68.1a.207.207,0,0,0-.354,0l-1.46,1.988L1.578,72.176.426,70.608a.207.207,0,0,0-.354,0,.432.432,0,0,0,0,.481L1.4,72.9a.207.207,0,0,0,.354,0l3.172-4.319A.432.432,0,0,0,4.926,68.1Z" transform="translate(449.5 4363.002)"/></g></svg>