<?xml version="1.0" encoding="utf-8"?>
<!-- Generator: Adobe Illustrator 16.0.0, SVG Export Plug-In . SVG Version: 6.00 Build 0)  -->
<!DOCTYPE svg PUBLIC "-//W3C//DTD SVG 1.1//EN" "http://www.w3.org/Graphics/SVG/1.1/DTD/svg11.dtd">
<svg version="1.1" id="Layer_1" xmlns="http://www.w3.org/2000/svg" xmlns:xlink="http://www.w3.org/1999/xlink" x="0px" y="0px"
	 width="640px" height="480px" viewBox="0 0 640 480" enable-background="new 0 0 640 480" xml:space="preserve">
<title>Asset 3</title>
<g id="Layer_2">
	<g id="Layer_1-2">
		<path fill="#08A6E4" d="M40,20h560c22.092,0,40,17.908,40,40l0,0c0,22.091-17.908,40-40,40H40C17.909,100,0,82.091,0,60l0,0
			C0,37.908,17.909,20,40,20z"/>
		<path fill="#08A6E4" d="M40,200h560c22.092,0,40,17.908,40,40l0,0c0,22.091-17.908,40-40,40H40c-22.091,0-40-17.909-40-40l0,0
			C0,217.908,17.909,200,40,200z"/>
		<path fill="#08A6E4" d="M40,380h560c22.092,0,40,17.908,40,40l0,0c0,22.091-17.908,40-40,40H40c-22.091,0-40-17.909-40-40l0,0
			C0,397.908,17.909,380,40,380z"/>
	</g>
</g>
</svg>
