<?xml version="1.0" encoding="utf-8"?>
<!-- Generator: Adobe Illustrator 16.0.0, SVG Export Plug-In . SVG Version: 6.00 Build 0)  -->
<!DOCTYPE svg PUBLIC "-//W3C//DTD SVG 1.1//EN" "http://www.w3.org/Graphics/SVG/1.1/DTD/svg11.dtd">
<svg version="1.1" id="Layer_1" xmlns="http://www.w3.org/2000/svg" xmlns:xlink="http://www.w3.org/1999/xlink" x="0px" y="0px"
	 width="640px" height="480px" viewBox="0 0 640 480" enable-background="new 0 0 640 480" xml:space="preserve">
<title>Asset 4</title>
<g id="Layer_2">
	<g id="Layer_1-2">
		<path fill="#08A6E4" d="M377.076,240L548.101,68.773c16.481-14.987,17.692-40.498,2.704-56.979
			c-14.987-16.481-40.498-17.692-56.979-2.704c-0.979,0.89-1.914,1.828-2.801,2.81L320,182.924L148.773,11.899
			c-15.732-15.639-41.142-15.639-56.874,0c-15.64,15.733-15.64,41.142,0,56.874L262.925,240L91.899,411.025
			c-16.534,14.93-17.836,40.436-2.906,56.97c14.929,16.535,40.436,17.836,56.97,2.907c0.982-0.888,1.92-1.822,2.811-2.801
			L320,297.075l171.025,171.025c15.762,15.761,41.314,15.761,57.076,0c15.761-15.761,15.761-41.314,0-57.076L377.076,240z"/>
	</g>
</g>
</svg>
