<svg xmlns="http://www.w3.org/2000/svg" width="27" height="27" viewBox="0 0 27 27"><defs><style>.a{fill:none;}.b{fill:#08a6e4;}</style></defs><g transform="translate(-365.186 -3743.31)"><path class="a" d="M0,0H27V27H0Z" transform="translate(365.186 3743.31)"/><path class="b" d="M21.8,4H4.2A2.223,2.223,0,0,0,2.011,6.25L2,19.75A2.232,2.232,0,0,0,4.2,22H21.8A2.232,2.232,0,0,0,24,19.75V6.25A2.232,2.232,0,0,0,21.8,4Zm0,15.75H4.2V8.5L13,14.125,21.8,8.5ZM13,11.875,4.2,6.25H21.8Z" transform="translate(365.186 3743.31)"/></g></svg>