<svg xmlns="http://www.w3.org/2000/svg" width="44" height="52" viewBox="0 0 44 52"><g transform="translate(-464 -1157)"><path d="M39.591,28h.351a9.626,9.626,0,0,0,7.428-3.284c4.065-4.669,3.381-12.675,3.326-13.441-.3-5.734-2.949-8.478-5.14-9.765A11.522,11.522,0,0,0,39.886,0h-.177a11.538,11.538,0,0,0-5.68,1.476c-2.217,1.28-4.907,4.024-5.173,9.814-.074.755-.739,8.768,3.326,13.441A9.647,9.647,0,0,0,39.591,28ZM31.679,11.546V11.46c.358-7.715,5.72-8.542,8.019-8.542h.126c2.845.064,7.679,1.249,8.008,8.546a.216.216,0,0,0,0,.087c0,.075.739,7.394-2.587,11.245a6.945,6.945,0,0,1-5.425,2.3h-.107a6.812,6.812,0,0,1-5.414-2.3C30.951,18.96,31.668,11.611,31.679,11.546Z" transform="translate(446.228 1157)"/><path d="M44,87.169v-.3c-.064-2.121-.2-7.084-4.851-8.67l-.109-.034a30.9,30.9,0,0,1-8.9-4.053,1.447,1.447,0,1,0-1.661,2.369,33.353,33.353,0,0,0,9.77,4.47c2.495.891,2.773,3.557,2.848,6.016a2.152,2.152,0,0,0,0,.267,19.471,19.471,0,0,1-.225,3.312c-1.71.974-8.515,4.384-18.863,4.384S4.854,91.507,3.111,90.522a18.435,18.435,0,0,1-.225-3.312v-.267c.075-2.444.353-5.113,2.848-6.016a33.665,33.665,0,0,0,9.77-4.47,1.447,1.447,0,1,0-1.661-2.369,30.562,30.562,0,0,1-8.868,4.064l-.109.034C.218,79.784.079,84.743,0,86.856a2.156,2.156,0,0,1,0,.267v.034a16.814,16.814,0,0,0,.545,4.854,1.376,1.376,0,0,0,.56.662c.323.214,8.022,5.125,20.911,5.125S42.6,92.876,42.926,92.673A1.436,1.436,0,0,0,43.482,92,17.018,17.018,0,0,0,44,87.169Z" transform="translate(464.001 1111.203)"/></g></svg>